<svg width="141" height="28" viewBox="0 0 141 28" fill="none" xmlns="http://www.w3.org/2000/svg">
<path d="M36.0066 14.25V13.7763C36.0066 10.0966 38.3983 6.44031 43.1303 6.44031C46.7586 6.44031 49.4396 8.62197 49.6496 11.961H46.6793C46.4436 10.358 45.207 9.14697 43.1303 9.14697C40.3956 9.14697 39.082 11.198 39.082 14.0096C39.082 16.8213 40.37 18.8466 43.156 18.8466C45.2863 18.8466 46.6256 17.638 46.81 15.9556H49.806C49.6216 19.346 46.81 21.5556 43.1536 21.5556C38.291 21.5556 36.002 17.8223 36.002 14.2476L36.0066 14.25Z" fill="#0D0D0D"/>
<path d="M51.6143 14.2756V13.7506C51.6143 9.99163 54.4539 6.44263 59.2653 6.44263C64.0766 6.44263 66.9163 9.99163 66.9163 13.7506V14.2756C66.9163 17.9553 64.2096 21.558 59.2653 21.558C54.3209 21.558 51.6143 17.9553 51.6143 14.2756ZM63.8386 14.012C63.8386 11.198 62.1026 9.12129 59.2653 9.12129C56.4279 9.12129 54.6919 11.198 54.6919 14.012C54.6919 16.826 56.3486 18.8746 59.2653 18.8746C62.1819 18.8746 63.8386 16.7723 63.8386 14.012Z" fill="#0D0D0D"/>
<path d="M69.7979 21.0844V6.91402H72.2432V10.2787C72.8475 7.83335 74.3735 6.49402 76.8445 6.49402H76.9752C79.2898 6.49402 80.7879 7.67702 81.4715 9.83302C82.1552 7.67702 83.6789 6.49402 85.9935 6.49402H86.1242C89.4095 6.49402 91.0918 8.83435 91.0918 13.0134V21.0844H88.0165V12.5677C88.0165 10.5167 86.9385 9.28235 85.0975 9.28235C83.2565 9.28235 81.9965 10.596 81.9965 12.7007V21.0867H78.8955V12.57C78.8955 10.519 77.8175 9.28469 76.0045 9.28469C74.1915 9.28469 72.8755 10.5984 72.8755 12.703V21.089H69.8002L69.7979 21.0844Z" fill="#0D0D0D"/>
<path d="M94.7266 26.3414V6.91406H97.1719V10.3837C98.0912 7.7284 100.222 6.46606 102.746 6.46606C106.795 6.46606 109.45 9.72573 109.45 13.7484V14.2477C109.45 18.2704 106.769 21.5557 102.721 21.5557C100.749 21.5557 98.9359 20.7927 97.8042 19.0847V26.3414H94.7289H94.7266ZM106.372 13.9864C106.372 11.0954 104.636 9.09573 102.06 9.09573C99.7199 9.09573 97.6969 10.7524 97.6969 13.5127V14.6421C97.6969 17.3231 99.7736 18.9004 102.06 18.9004C104.636 18.9004 106.372 16.9031 106.372 13.9841V13.9864Z" fill="#0D0D0D"/>
<path d="M112.365 21.0844V4.2587H110.498V1.8927H115.466V21.0844H112.365Z" fill="#0D0D0D"/>
<path d="M120.251 21.0844V9.28006H118.175V6.91406H123.327V21.0844H120.251Z" fill="#0D0D0D"/>
<path d="M126.236 14.25V13.7506C126.236 10.071 128.551 6.44263 133.255 6.44263C137.959 6.44263 140.117 9.83296 140.117 13.4613V14.698H129.181C129.391 17.1946 130.679 18.9563 133.414 18.9563C135.385 18.9563 136.699 17.9833 136.988 16.8003H139.854C139.249 19.745 136.804 21.558 133.414 21.558C128.472 21.558 126.236 17.8503 126.236 14.25ZM129.26 12.619H137.121C136.832 10.3836 135.544 9.04429 133.257 9.04429C130.971 9.04429 129.629 10.4373 129.26 12.619Z" fill="#0D0D0D"/>
<path d="M121.778 4.95406C122.765 4.95406 123.565 4.15384 123.565 3.16673C123.565 2.17961 122.765 1.37939 121.778 1.37939C120.79 1.37939 119.99 2.17961 119.99 3.16673C119.99 4.15384 120.79 4.95406 121.778 4.95406Z" fill="#0D0D0D"/>
<path opacity="0.6" d="M5.36083 7.10536L1.0815 11.3824C-0.3605 12.8244 -0.3605 15.174 1.0815 16.616L5.3585 20.893L7.9765 18.275L3.6995 13.998L7.9765 9.72103L5.3585 7.10303L5.36083 7.10536Z" fill="#00854D"/>
<path d="M26.9158 11.3823L13.9985 24.2997L9.72152 20.0227L7.10352 22.6407L11.3805 26.9177C12.1015 27.6387 13.0488 28.0003 13.9985 28.0003C14.9482 28.0003 15.8932 27.6387 16.6165 26.9177L26.9158 16.6183C27.6158 15.9183 28.0008 14.9897 28.0008 14.0003C28.0008 13.011 27.6158 12.0823 26.9158 11.3823Z" fill="#00854D"/>
<path opacity="0.33" d="M14.0005 3.70101L22.5568 12.255L25.1725 9.63934L16.6161 1.08301C15.1718 -0.361327 12.8245 -0.361327 11.3825 1.08301L7.10547 5.36001L9.72347 7.97801L14.0005 3.70101Z" fill="#00854D"/>
</svg>
